<?xml version="1.0" encoding="UTF-8" standalone="no"?>
<!-- Created with Inkscape (http://www.inkscape.org/) -->

<svg
   xmlns:dc="http://purl.org/dc/elements/1.1/"
   xmlns:cc="http://creativecommons.org/ns#"
   xmlns:rdf="http://www.w3.org/1999/02/22-rdf-syntax-ns#"
   xmlns:svg="http://www.w3.org/2000/svg"
   xmlns="http://www.w3.org/2000/svg"
   xmlns:sodipodi="http://sodipodi.sourceforge.net/DTD/sodipodi-0.dtd"
   xmlns:inkscape="http://www.inkscape.org/namespaces/inkscape"
   width="326.26242"
   height="130.58652"
   viewBox="0 0 326.26242 130.58651"
   id="svg5661"
   version="1.1"
   inkscape:version="0.91 r13725"
   sodipodi:docname="logo.svg"
   inkscape:export-filename="C:\Documents\S624332\Documents\My Pictures\Logo\devfest-free.png"
   inkscape:export-xdpi="300"
   inkscape:export-ydpi="300">
  <defs
     id="defs5663">
    <filter
       style="color-interpolation-filters:sRGB"
       inkscape:label="Drop Shadow"
       id="filter5376">
      <feFlood
         flood-opacity="1"
         flood-color="rgb(114,114,114)"
         result="flood"
         id="feFlood5378" />
      <feComposite
         in="flood"
         in2="SourceGraphic"
         operator="in"
         result="composite1"
         id="feComposite5380" />
      <feGaussianBlur
         in="composite1"
         stdDeviation="1"
         result="blur"
         id="feGaussianBlur5382" />
      <feOffset
         dx="1"
         dy="1"
         result="offset"
         id="feOffset5384" />
      <feComposite
         in="SourceGraphic"
         in2="offset"
         operator="over"
         result="composite2"
         id="feComposite5386" />
    </filter>
  </defs>
  <sodipodi:namedview
     id="base"
     pagecolor="#ffffff"
     bordercolor="#666666"
     borderopacity="1.0"
     inkscape:pageopacity="0.0"
     inkscape:pageshadow="2"
     inkscape:zoom="0.83039936"
     inkscape:cx="88.847303"
     inkscape:cy="-35.619183"
     inkscape:document-units="px"
     inkscape:current-layer="text4150"
     showgrid="false"
     inkscape:window-width="1280"
     inkscape:window-height="778"
     inkscape:window-x="0"
     inkscape:window-y="0"
     inkscape:window-maximized="1"
     fit-margin-top="10"
     fit-margin-left="10"
     fit-margin-right="10"
     fit-margin-bottom="10"
     units="px" />
  <metadata
     id="metadata5666">
    <rdf:RDF>
      <cc:Work
         rdf:about="">
        <dc:format>image/svg+xml</dc:format>
        <dc:type
           rdf:resource="http://purl.org/dc/dcmitype/StillImage" />
        <dc:title></dc:title>
      </cc:Work>
    </rdf:RDF>
  </metadata>
  <g
     inkscape:label="Calque 1"
     inkscape:groupmode="layer"
     id="layer1"
     transform="translate(-285.41482,-593.05597)">
    <g
       id="g4154"
       transform="translate(-4.5847942e-6,-2.6475334)">
      <g
         id="g5333"
         style="filter:url(#filter5376)">
        <path
           inkscape:export-ydpi="300"
           inkscape:export-xdpi="300"
           style="fill:#3f51b5;fill-opacity:1"
           d="m 327.13157,654.31077 c 1.4117,0 1.97341,0.9923 1.247,2.1995 l -8.17576,13.6033 c -0.0457,0.07 -0.1201,0.1312 -0.16064,0.1963 -7.91353,13.1998 -4.79728,8.0642 -4.79728,8.0642 -0.72641,1.2079 -0.72641,3.1845 0,4.3958 l 8.12226,13.5195 c 0.04,0.09 0.0601,0.1943 0.11267,0.2811 l 4.98464,8.3007 c 0.50997,1.0913 -0.0206,1.9586 -1.33289,1.9586 l -7.90547,0 c -1.40428,0 -3.15406,-0.9855 -3.87818,-2.1973 l -5.00698,-8.3319 -8.12779,-13.5307 c -0.72527,-1.2118 -0.72527,-3.1879 0,-4.3958 l 13.13477,-21.8638 c 0.72412,-1.2072 2.4739,-2.1995 3.87818,-2.1995 z"
           id="path4150"
           inkscape:connector-curvature="0"
           sodipodi:nodetypes="sccccccccsscccccss" />
        <path
           sodipodi:nodetypes="ccccccccssccccccscccccccc"
           inkscape:export-ydpi="300"
           inkscape:export-xdpi="300"
           style="fill:#7986cb;fill-opacity:1"
           d="m 319.09658,654.39247 c -1.39431,0 -3.13045,0.9921 -3.84943,2.1993 l -0.6962,1.1679 -0.002,0 c -0.0205,0.035 -0.22805,0.3834 -0.25404,0.4278 l -4.61738,7.7422 c -0.0233,0.026 -0.0458,0.05 -0.0641,0.078 l -7.67131,12.71064 c -0.72126,1.2072 -0.16444,2.1992 1.23724,2.1992 l 7.85013,0 c 1.39431,0 3.13045,-0.992 3.84943,-2.1992 l 0.25947,-0.28874 0.37622,-0.6348 4.48551,-7.5176 c 0.0245,-0.027 0.0487,-0.053 0.0679,-0.082 l 8.11775,-13.6035 c 0.72126,-1.2072 0.16249,-2.1993 -1.23919,-2.1993 l -7.85013,0 z m -4.54757,3.3672 c 0.47525,-0.8154 -0.0136,-0.012 -0.0136,-0.012 0.005,0 0.009,0.01 0.0136,0.012 z m 0.58954,20.6719 c -0.47929,0.8222 0.45243,-0.86986 0.45243,-0.86986 0,0 -0.45043,0.87786 -0.45243,0.86986 z"
           id="path4152"
           inkscape:connector-curvature="0" />
        <path
           inkscape:export-ydpi="300"
           inkscape:export-xdpi="300"
           sodipodi:nodetypes="sccccccccsscccccss"
           inkscape:connector-curvature="0"
           id="path4154"
           d="m 318.63639,654.15987 c -1.4117,0 -1.98295,0.9923 -1.26815,2.1995 l 8.04493,13.6033 c 0.045,0.07 0.11884,0.1312 0.15875,0.1963 7.78659,13.1998 4.71973,8.0642 4.71973,8.0642 0.71479,1.2079 0.69579,3.1845 -0.0423,4.3958 l -8.25228,13.5195 c -0.0409,0.09 -0.062,0.1943 -0.11537,0.2811 l -5.06447,8.3007 c -0.52047,1.0913 0.002,1.9586 1.31405,1.9586 l 7.90547,0 c 1.40428,0 3.16354,-0.9855 3.89931,-2.1973 l 5.08711,-8.3319 8.25792,-13.5307 c 0.73692,-1.2118 0.75592,-3.1879 0.0423,-4.3958 l -12.9245,-21.8638 c -0.71251,-1.2072 -2.45275,-2.1995 -3.85703,-2.1995 z"
           style="fill:#c5cae9;fill-opacity:1" />
        <path
           inkscape:export-ydpi="300"
           inkscape:export-xdpi="300"
           sodipodi:nodetypes="sccccccccsscccccss"
           inkscape:connector-curvature="0"
           id="path4156"
           d="m 319.15494,615.10957 c -2.472,0 -3.4556,1.7376 -2.1836,3.8516 l 14.3164,23.8204 c 0.08,0.123 0.2103,0.2297 0.2813,0.3437 13.8572,23.1139 8.4004,14.1211 8.4004,14.1211 1.272,2.115 1.272,5.5763 0,7.6973 l -14.2227,23.6738 c -0.07,0.158 -0.1053,0.3402 -0.1973,0.4922 l -8.7285,14.5351 c -0.893,1.911 0.036,3.4297 2.334,3.4297 l 13.8431,0 c 2.459,0 5.523,-1.7256 6.791,-3.8476 l 8.7676,-14.5899 14.2324,-23.6933 c 1.27,-2.122 1.27,-5.5823 0,-7.6973 l -23,-38.2852 c -1.268,-2.114 -4.332,-3.8516 -6.791,-3.8516 z"
           style="fill:#303f9f;fill-opacity:1" />
        <path
           inkscape:export-ydpi="300"
           inkscape:export-xdpi="300"
           inkscape:connector-curvature="0"
           id="path4158"
           d="m 333.39472,614.91924 c 2.49515,0 5.52461,1.6917 6.71705,3.7502 l 1.15476,1.9914 0.003,0 c 0.034,0.06 0.37817,0.654 0.42124,0.7296 l 7.65882,13.202 c 0.0396,0.044 0.0781,0.085 0.10855,0.1329 l 13.4655,23.1966 c 1.1965,2.0585 0.12267,3.7501 -2.38565,3.7501 l -14.04796,0 c -2.49514,0 -5.52458,-1.6916 -6.71702,-3.7501 l -1.17104,-2.0148 -0.62372,-1.0825 -7.44038,-12.8189 c -0.0417,-0.046 -0.083,-0.091 -0.11514,-0.1399 l -13.46554,-23.1966 c -1.1965,-2.0584 -0.11919,-3.7502 2.38915,-3.7502 l 14.04794,0 z m 7.87527,5.7416 c -0.78685,-1.3903 0.0253,-0.021 0.0253,-0.021 -0.008,0 -0.0168,0.017 -0.0253,0.021 z m -2.6678,35.2496 c 0.79354,1.4021 -0.0127,0.039 -0.0127,0.039 0.004,-0.016 0.008,-0.025 0.0127,-0.039 z"
           style="fill:#1a237e;fill-opacity:1" />
      </g>
      <g
         style="font-style:normal;font-variant:normal;font-weight:normal;font-stretch:normal;font-size:59.66125107px;line-height:125%;font-family:'Didact Gothic';-inkscape-font-specification:'Didact Gothic, Normal';text-align:start;letter-spacing:0px;word-spacing:0px;writing-mode:lr-tb;text-anchor:start;fill:#1a237e;fill-opacity:1;stroke:none;stroke-width:1px;stroke-linecap:butt;stroke-linejoin:miter;stroke-opacity:1"
         id="text4160">
        <path
           d="m 514.92045,703.97314 0,-40.68897 4.4746,0 0,36.98998 15.92955,0 0,3.69899 -20.40415,0 z"
           id="path5414"
           inkscape:connector-curvature="0" />
        <path
           d="m 539.65284,669.72759 q -0.89492,-0.95458 -0.89492,-2.32679 0,-1.37221 0.89492,-2.26713 0.95458,-0.95458 2.32679,-0.95458 1.37221,0 2.26712,0.95458 0.95458,0.89492 0.95458,2.26713 0,1.37221 -0.95458,2.32679 -0.89491,0.89492 -2.26712,0.89492 -1.37221,0 -2.32679,-0.89492 z m 0.2983,34.24555 0,-27.92146 4.05697,0 0,27.92146 -4.05697,0 z"
           id="path5416"
           inkscape:connector-curvature="0" />
        <path
           d="m 551.78551,703.97314 0,-43.31406 4.05697,0 0,43.31406 -4.05697,0 z"
           id="path5418"
           inkscape:connector-curvature="0" />
        <path
           d="m 563.90421,703.97314 0,-43.31406 4.05696,0 0,43.31406 -4.05696,0 z"
           id="path5420"
           inkscape:connector-curvature="0" />
        <path
           d="m 578.05138,690.01241 q 0,4.59392 2.9234,7.93495 2.98306,3.28137 6.86104,3.28137 4.29561,0 6.20477,-1.19323 1.96883,-1.19322 3.52002,-3.87798 l 3.22171,2.14781 q -2.20747,3.34103 -5.01155,5.01154 -2.80408,1.61085 -7.81562,1.61085 -5.30986,0 -9.66513,-4.41493 -4.29561,-4.47459 -4.29561,-10.50038 0,-6.02578 4.23595,-10.44072 4.29561,-4.47459 9.60546,-4.47459 5.30986,0 9.5458,4.47459 4.29561,4.41494 4.29561,10.44072 l -23.62585,0 z m 0.59661,-3.699 18.37567,0 q -1.01424,-3.28136 -3.57968,-5.36951 -2.56543,-2.1478 -5.60816,-2.1478 -3.04272,0 -5.60815,2.1478 -2.56544,2.08815 -3.57968,5.36951 z"
           id="path5422"
           inkscape:connector-curvature="0" />
      </g>
      <g
         style="font-style:normal;font-variant:normal;font-weight:normal;font-stretch:normal;font-size:59.66125107px;line-height:125%;font-family:'Didact Gothic';-inkscape-font-specification:'Didact Gothic, Normal';text-align:start;letter-spacing:0px;word-spacing:0px;writing-mode:lr-tb;text-anchor:start;fill:#323232;fill-opacity:1;stroke:none;stroke-width:1px;stroke-linecap:butt;stroke-linejoin:miter;stroke-opacity:1"
         id="text4164">
        <path
           d="m 364.54877,690.01241 q 0,4.59392 2.9234,7.93495 2.98306,3.28137 6.86104,3.28137 4.29561,0 6.20477,-1.19323 1.96882,-1.19322 3.52001,-3.87798 l 3.22171,2.14781 q -2.20746,3.34103 -5.01154,5.01154 -2.80408,1.61085 -7.81563,1.61085 -5.30985,0 -9.66512,-4.41493 -4.29561,-4.47459 -4.29561,-10.50038 0,-6.02578 4.23595,-10.44072 4.29561,-4.47459 9.60546,-4.47459 5.30985,0 9.5458,4.47459 4.29561,4.41494 4.29561,10.44072 l -23.62585,0 z m 0.59661,-3.699 18.37566,0 q -1.01424,-3.28136 -3.57967,-5.36951 -2.56544,-2.1478 -5.60816,-2.1478 -3.04272,0 -5.60816,2.1478 -2.56543,2.08815 -3.57967,5.36951 z"
           id="path5401"
           inkscape:connector-curvature="0" />
        <path
           d="m 401.14442,703.97314 -11.27598,-27.92146 4.41493,0 9.12818,22.67127 9.12817,-22.67127 4.41493,0 -11.33564,27.92146 -4.47459,0 z"
           id="path5403"
           inkscape:connector-curvature="0" />
        <path
           d="m 432.70988,663.40349 -1.67051,0 q -2.02848,0 -3.40069,1.5512 -1.37221,1.49153 -1.37221,3.57967 l 0,7.51732 6.44341,0 0,3.699 -6.44341,0 0,24.22246 -4.05697,0 0,-24.22246 -3.57967,0 0,-3.699 3.57967,0 0,-7.51732 q 0,-3.699 2.56544,-6.26443 2.56543,-2.56543 6.26443,-2.56543 l 1.67051,0 0,3.69899 z"
           id="path5405"
           inkscape:connector-curvature="0" />
        <path
           d="m 439.47491,690.01241 q 0,4.59392 2.9234,7.93495 2.98306,3.28137 6.86104,3.28137 4.29561,0 6.20477,-1.19323 1.96882,-1.19322 3.52001,-3.87798 l 3.22171,2.14781 q -2.20746,3.34103 -5.01154,5.01154 -2.80408,1.61085 -7.81563,1.61085 -5.30985,0 -9.66512,-4.41493 -4.29561,-4.47459 -4.29561,-10.50038 0,-6.02578 4.23595,-10.44072 4.29561,-4.47459 9.60546,-4.47459 5.30985,0 9.5458,4.47459 4.29561,4.41494 4.29561,10.44072 l -23.62585,0 z m 0.59661,-3.699 18.37566,0 q -1.01424,-3.28136 -3.57967,-5.36951 -2.56544,-2.1478 -5.60816,-2.1478 -3.04272,0 -5.60816,2.1478 -2.56543,2.08815 -3.57967,5.36951 z"
           id="path5407"
           inkscape:connector-curvature="0" />
        <path
           d="m 479.05362,691.98123 q -0.17898,-0.0597 -1.31254,-0.23864 -1.07391,-0.23865 -1.49153,-0.29831 -0.41763,-0.11932 -1.5512,-0.35797 -1.0739,-0.2983 -1.61085,-0.47729 -0.47729,-0.23864 -1.43187,-0.59661 -0.89492,-0.41763 -1.37221,-0.77559 -0.47729,-0.41763 -1.13356,-0.95458 -0.65628,-0.59662 -1.01424,-1.19323 -0.29831,-0.65627 -0.53696,-1.43187 -0.23864,-0.83526 -0.23864,-1.78984 0,-4.05696 3.28137,-6.38375 3.28137,-2.38645 8.53156,-2.38645 7.75596,0 10.50038,6.56274 l -3.63934,1.78983 q -1.90916,-4.65357 -6.86104,-4.65357 -3.75866,0 -5.72748,1.37221 -1.96882,1.3722 -1.96882,3.69899 0,0.65628 0.23864,1.19323 0.23865,0.47729 0.7756,0.89492 0.53695,0.35796 0.95458,0.59661 0.47729,0.23864 1.43187,0.47729 0.95458,0.23864 1.43187,0.35797 0.47729,0.0597 1.61085,0.23864 1.13356,0.17899 1.49153,0.23865 2.26713,0.41763 3.81832,0.89492 1.61086,0.41762 3.46035,1.31254 1.90916,0.89492 2.86374,2.44611 1.01425,1.49154 1.01425,3.57968 0,4.05696 -3.63934,6.44341 -3.63934,2.38645 -9.00885,2.38645 -3.93764,0 -7.04003,-1.73017 -3.04272,-1.73018 -4.35527,-4.89222 l 3.63934,-1.78984 q 0.89492,2.08814 2.9234,3.40069 2.02848,1.25289 4.83256,1.25289 3.81832,0 6.20477,-1.43187 2.38645,-1.49154 2.38645,-3.63934 0,-0.65627 -0.23864,-1.19323 -0.23865,-0.53695 -0.7756,-0.89491 -0.47729,-0.41763 -0.95458,-0.65628 -0.41763,-0.2983 -1.31255,-0.47729 -0.83526,-0.23864 -1.31255,-0.35797 -0.47729,-0.11932 -1.49153,-0.2983 -1.01424,-0.17899 -1.37221,-0.23865 z"
           id="path5409"
           inkscape:connector-curvature="0" />
        <path
           d="m 494.13859,679.75068 0,-3.699 3.57968,0 0,-9.24749 4.05696,0 0,9.24749 6.44342,0 0,3.699 -6.44342,0 0,24.22246 -4.05696,0 0,-24.22246 -3.57968,0 z"
           id="path5411"
           inkscape:connector-curvature="0" />
      </g>
      <g
         style="font-style:normal;font-variant:normal;font-weight:normal;font-stretch:normal;font-size:59.66125107px;line-height:125%;font-family:'Didact Gothic';-inkscape-font-specification:'Didact Gothic, Normal';text-align:start;letter-spacing:0px;word-spacing:0px;writing-mode:lr-tb;text-anchor:start;fill:#323232;fill-opacity:1;stroke:none;stroke-width:1px;stroke-linecap:butt;stroke-linejoin:miter;stroke-opacity:1"
         id="text4150" />
    </g>
  </g>
</svg>
